<?xml version="1.0" standalone="no"?>
<!DOCTYPE svg PUBLIC "-//W3C//DTD SVG 20010904//EN"
 "http://www.w3.org/TR/2001/REC-SVG-20010904/DTD/svg10.dtd">
<svg version="1.0" xmlns="http://www.w3.org/2000/svg"
 width="305.000000pt" height="276.000000pt" viewBox="0 0 305.000000 276.000000"
 preserveAspectRatio="xMidYMid meet">

<g transform="translate(0.000000,276.000000) scale(0.100000,-0.100000)"
fill="#000000" stroke="none">
<path d="M960 2739 c-206 -22 -400 -102 -540 -223 -77 -66 -146 -176 -185
-294 -26 -81 -23 -282 4 -282 4 0 16 18 26 41 22 48 30 40 44 -52 6 -36 20
-93 31 -128 20 -61 21 -64 3 -83 -14 -15 -18 -36 -18 -87 1 -143 111 -275 256
-305 22 -5 35 -22 69 -90 29 -59 58 -100 96 -136 59 -56 68 -86 30 -96 -14 -3
-29 -3 -35 0 -13 8 -197 -38 -271 -68 -31 -13 -73 -26 -93 -30 -43 -8 -100
-54 -116 -93 -6 -16 -27 -109 -46 -208 -19 -99 -49 -224 -66 -278 -17 -54 -30
-99 -28 -101 2 -1 25 -12 50 -24 l46 -21 6 -66 c4 -36 2 -77 -3 -90 -8 -21 -7
-25 9 -25 29 0 43 51 30 111 -6 28 -9 52 -7 54 1 1 35 -3 73 -11 39 -7 85 -13
103 -14 30 0 32 -2 22 -21 -9 -16 -14 -18 -26 -8 -9 7 -18 9 -24 3 -14 -14 59
-114 83 -114 19 0 19 1 -1 33 -16 29 -18 37 -7 57 12 23 13 22 34 -25 11 -26
21 -52 21 -56 0 -5 188 -8 435 -7 l435 3 51 145 c83 236 88 257 95 340 4 44
11 80 15 80 11 0 507 178 530 190 11 6 15 18 12 34 -4 19 6 35 49 76 29 28 78
65 109 80 66 34 130 101 188 199 63 106 178 241 220 258 52 22 96 58 130 106
24 34 44 48 109 75 84 35 99 50 82 83 -13 23 -29 24 -94 4 -27 -8 -51 -14 -52
-12 -2 2 18 20 44 40 77 58 87 73 74 102 -16 35 -38 31 -115 -21 -75 -49 -75
-48 -12 51 43 68 49 89 30 109 -36 36 -57 22 -131 -90 l-46 -69 6 40 c24 160
19 195 -30 195 -28 0 -41 -22 -50 -81 -9 -63 -41 -171 -58 -194 -13 -18 -15
-17 -35 22 -26 51 -67 85 -99 81 -43 -5 -48 -29 -16 -77 19 -29 30 -63 35
-106 5 -35 17 -82 29 -104 11 -22 20 -46 20 -53 0 -8 -75 -70 -167 -138 -214
-159 -229 -173 -258 -230 -35 -69 -67 -73 -118 -18 -28 31 -42 39 -52 33 -86
-62 -171 -114 -277 -170 -125 -65 -128 -66 -167 -54 l-40 12 57 62 c69 73 127
185 147 283 8 40 17 153 20 259 3 103 9 208 15 233 5 25 9 64 10 86 0 23 6 47
14 53 7 6 11 22 8 36 -4 22 -10 25 -43 25 -33 0 -39 3 -39 21 0 51 -43 227
-71 288 -16 36 -48 87 -69 113 -34 39 -40 54 -40 93 0 181 -176 274 -460 244z
m436 -390 c58 -15 98 -61 124 -145 23 -76 46 -202 38 -210 -3 -3 -17 6 -31 20
-49 49 -146 43 -209 -13 -27 -24 -29 -29 -16 -41 13 -13 11 -18 -20 -42 -37
-30 -87 -43 -130 -35 -92 19 -132 32 -132 43 0 33 -138 46 -193 18 -41 -21
-77 -54 -77 -71 0 -18 5 -17 54 12 44 26 145 47 133 28 -4 -6 -21 -13 -39 -16
-18 -3 -74 -20 -123 -39 -53 -21 -145 -45 -223 -58 -100 -18 -132 -27 -128
-37 3 -7 -1 -13 -9 -13 -12 0 -34 54 -49 122 -5 21 -3 26 7 22 9 -3 19 7 27
26 7 17 21 35 31 40 15 9 18 5 21 -22 4 -42 20 -37 33 10 10 34 14 37 52 40
27 2 46 -2 56 -12 9 -9 18 -16 20 -16 8 0 15 40 8 44 -3 3 -6 24 -6 48 1 24
-3 46 -8 49 -6 4 -1 25 11 50 40 82 178 142 324 140 65 -1 100 4 140 19 30 11
79 20 113 21 33 0 76 7 95 14 44 17 52 17 106 4z m46 -360 c-29 -5 -66 -16
-82 -24 -40 -21 -38 -10 3 15 21 14 48 20 82 19 l50 -1 -53 -9z m1235 -61 c-3
-35 -9 -89 -13 -120 -6 -47 -4 -58 8 -58 19 0 57 42 102 113 35 56 60 77 74
63 7 -8 3 -15 -73 -139 -37 -59 -46 -80 -37 -89 9 -9 32 2 95 45 45 31 88 57
95 57 29 0 5 -30 -73 -90 -47 -35 -85 -68 -85 -72 0 -19 29 -18 106 2 79 22
103 22 91 3 -3 -4 -36 -19 -73 -33 -37 -14 -78 -36 -90 -50 -12 -14 -40 -44
-61 -68 -25 -28 -55 -49 -88 -60 -43 -15 -61 -31 -123 -107 -40 -50 -92 -121
-114 -159 -61 -104 -112 -154 -195 -193 -40 -18 -73 -39 -73 -46 0 -7 -14 -26
-30 -42 l-31 -29 -6 24 c-4 14 -23 58 -43 98 -23 45 -32 72 -24 72 7 0 16 -5
19 -10 14 -22 32 -7 44 37 6 26 24 63 38 81 28 37 389 312 410 312 17 0 18 -2
-22 81 -23 49 -35 88 -35 117 0 41 -29 114 -50 127 -17 10 -11 25 10 25 10 0
32 -16 47 -37 15 -20 44 -55 64 -77 46 -52 59 -77 59 -115 0 -17 5 -31 10 -31
20 0 10 77 -15 114 l-25 37 20 39 c19 37 39 112 54 203 5 24 12 37 23 37 13 0
15 -10 10 -62z m-1113 0 c2 -7 9 -51 15 -97 12 -96 5 -116 -52 -151 -68 -42
-159 -15 -199 60 l-18 35 48 6 c73 10 120 28 152 59 l29 28 -62 12 c-69 13
-105 5 -144 -32 -23 -21 -23 -21 -23 -1 0 28 40 62 91 78 57 18 158 19 163 3z
m-458 -101 c53 -62 15 -190 -69 -234 -38 -19 -127 -18 -166 2 -61 31 -104 130
-81 185 20 49 112 81 224 77 61 -3 71 -6 92 -30z m302 22 c-2 -6 -8 -10 -13
-10 -5 0 -11 4 -13 10 -2 6 4 11 13 11 9 0 15 -5 13 -11z m77 -9 c-14 -16 -20
-17 -27 -8 -13 22 -9 28 19 28 26 0 26 0 8 -20z m-128 -46 c-2 -3 -12 -2 -21
2 -16 6 -16 8 1 26 18 20 18 20 21 -2 2 -12 2 -24 -1 -26z m-97 -4 c3 -14 25
-78 49 -144 42 -110 44 -120 30 -144 -21 -39 -62 -50 -98 -29 -22 13 -36 15
-54 8 -30 -12 -37 -6 -37 28 -1 22 -2 24 -11 9 -7 -12 -6 -24 1 -39 10 -17 17
-20 50 -14 28 5 46 2 62 -9 34 -24 55 -20 99 22 41 40 43 57 13 92 -7 9 -20
32 -29 53 l-15 36 38 -22 c57 -34 145 -31 202 7 l43 28 -8 -163 c-9 -208 -16
-246 -64 -344 -45 -90 -94 -153 -147 -185 -44 -28 -50 -23 -18 15 21 24 25 37
20 64 -8 49 -26 64 -60 51 -15 -5 -42 -10 -61 -10 -29 0 -33 -3 -39 -34 -4
-18 -4 -40 -1 -47 7 -18 70 -59 92 -60 42 -2 -36 -17 -96 -18 -127 -2 -383
108 -467 202 -52 58 -104 154 -104 192 0 23 -4 25 -42 25 -89 1 -180 68 -226
169 -35 75 -36 146 -3 172 34 28 56 24 105 -21 24 -22 46 -40 50 -40 17 0 2
38 -26 67 -21 21 -27 33 -17 34 7 0 52 4 99 8 104 10 123 3 146 -57 23 -61 85
-127 140 -148 89 -34 212 4 268 84 23 33 31 55 34 104 5 86 7 90 44 86 26 -2
34 -8 38 -28z m-339 -803 c118 -54 199 -79 277 -86 l72 -6 -17 -35 c-65 -129
-364 -96 -472 52 -33 45 -32 58 4 58 24 0 55 23 55 41 0 13 -1 13 81 -24z"/>
<path d="M850 1779 l-65 -31 39 -20 c34 -18 50 -19 114 -14 42 4 89 14 105 23
30 15 30 16 11 30 -30 24 -81 43 -111 43 -15 0 -57 -14 -93 -31z m78 -10 c-2
-6 -8 -10 -13 -10 -5 0 -11 4 -13 10 -2 6 4 11 13 11 9 0 15 -5 13 -11z m87
-1 c18 -8 22 -14 13 -20 -24 -15 -48 -9 -48 12 0 23 1 24 35 8z m-142 -18 c-6
-22 -11 -24 -32 -11 -11 7 -10 11 5 20 27 15 33 14 27 -9z"/>
<path d="M412 1664 c26 -14 27 -17 22 -72 -4 -40 -2 -62 8 -75 11 -15 13 -11
9 34 -6 100 42 82 74 -28 8 -29 20 -55 25 -58 6 -3 10 -15 10 -27 0 -21 -3
-21 -55 -4 -11 4 -5 -1 13 -11 44 -23 62 -7 43 40 -7 17 -16 48 -20 67 -4 19
-13 44 -19 56 -19 35 -91 94 -115 94 -21 -1 -20 -2 5 -16z"/>
<path d="M1440 1422 c0 -13 -118 -50 -195 -62 -38 -6 -108 -10 -155 -9 -47 2
-91 0 -98 -5 -18 -11 -15 -26 6 -26 11 0 28 -17 42 -42 38 -67 111 -135 161
-148 125 -34 213 36 255 201 9 35 20 69 25 75 5 6 6 14 2 17 -9 10 -43 9 -43
-1z m-19 -83 c-70 -57 -381 -71 -381 -18 0 5 41 9 90 9 93 0 214 20 272 45 29
12 33 12 37 -3 2 -9 -6 -24 -18 -33z m-59 -152 c-31 -30 -36 -32 -107 -32 -55
0 -78 4 -91 16 -15 15 -9 17 73 21 54 3 100 11 118 20 42 23 45 13 7 -25z"/>
</g>
</svg>
