<?xml version="1.0" standalone="no"?>
<!DOCTYPE svg PUBLIC "-//W3C//DTD SVG 20010904//EN"
 "http://www.w3.org/TR/2001/REC-SVG-20010904/DTD/svg10.dtd">
<svg version="1.0" xmlns="http://www.w3.org/2000/svg"
 width="202.000000pt" height="236.000000pt" viewBox="0 0 202.000000 236.000000"
 preserveAspectRatio="xMidYMid meet">

<g transform="translate(0.000000,236.000000) scale(0.100000,-0.100000)"
fill="#000000" stroke="none">
<path d="M975 2294 c-152 -34 -320 -126 -407 -223 -53 -59 -59 -75 -25 -69 22
4 22 3 -9 -56 -36 -68 -61 -155 -70 -245 -7 -67 2 -77 28 -33 10 15 28 40 41
56 l23 29 -13 -89 c-7 -49 -16 -111 -19 -137 -5 -47 -7 -48 -31 -42 -42 10
-80 -12 -105 -64 -20 -40 -23 -61 -23 -156 0 -124 18 -181 79 -245 29 -31 34
-45 44 -125 16 -125 65 -222 168 -333 l77 -83 -44 3 c-30 1 -102 -16 -231 -55
-103 -31 -198 -57 -210 -57 -32 0 -81 -32 -112 -73 -21 -27 -32 -61 -46 -144
-11 -59 -22 -118 -25 -130 l-5 -23 880 0 880 0 -5 23 c-3 12 -14 68 -25 124
-21 115 -36 150 -80 186 -27 23 -86 47 -116 47 -9 0 -258 72 -293 85 -8 3 9
20 45 43 77 50 144 126 186 209 28 57 38 68 67 76 102 26 223 236 208 363 -6
54 -30 84 -69 84 -35 0 -35 11 -4 110 47 148 57 309 25 434 -8 34 -8 54 1 80
28 87 3 175 -60 213 -16 9 -34 27 -41 39 -31 58 -156 128 -294 165 -107 28
-294 35 -390 13z m20 -408 c36 -25 127 -46 196 -46 37 0 70 -4 74 -9 12 -20
120 -52 205 -60 97 -10 160 -36 186 -76 20 -30 31 -105 16 -105 -8 0 -9 -8 -2
-26 13 -34 13 -37 -6 -30 -12 5 -15 2 -9 -11 16 -39 18 -56 7 -49 -14 9 -16
-13 -3 -33 8 -12 12 -13 25 -1 9 7 20 10 23 6 8 -8 -23 -136 -36 -149 -4 -4
-41 7 -81 24 -143 60 -232 77 -315 59 -147 -33 -210 -22 -280 45 -90 88 -132
98 -327 82 l-98 -8 1 43 c0 24 4 63 7 88 l7 45 24 -24 c19 -19 25 -21 32 -10
5 8 9 16 10 19 0 3 2 12 5 20 2 8 6 29 10 45 3 17 8 37 11 45 3 8 7 22 8 32 3
29 32 64 67 81 43 22 214 24 243 3z m-491 -454 c11 -14 14 -28 10 -51 l-7 -33
-13 31 c-7 17 -20 31 -29 31 -14 0 -14 -3 1 -26 16 -24 16 -27 -4 -68 -12 -24
-22 -54 -22 -66 0 -31 12 -17 25 27 10 36 31 42 28 8 -1 -11 -5 -58 -9 -104
-6 -74 -9 -82 -21 -66 -7 11 -13 14 -13 8 0 -6 7 -16 15 -23 8 -7 15 -24 15
-38 0 -24 -1 -25 -20 -7 -68 61 -84 310 -24 376 22 24 46 24 68 1z m363 -7
c29 -8 66 -27 83 -41 26 -22 30 -33 30 -72 -1 -133 -145 -212 -276 -153 -53
24 -80 60 -95 125 -15 68 3 134 41 154 31 16 143 10 217 -13z m-285 -220 c36
-67 104 -106 200 -113 49 -3 80 0 112 12 57 22 114 79 127 130 17 66 23 71 68
70 61 -1 70 -16 61 -94 -21 -167 -21 -169 -9 -127 6 20 14 37 17 37 4 0 19
-20 33 -44 46 -76 180 -123 276 -97 52 14 97 51 135 111 26 40 29 42 23 15
-31 -141 -123 -378 -176 -447 -49 -67 -129 -128 -227 -174 -103 -49 -180 -62
-275 -46 -105 18 -165 53 -256 147 -96 101 -147 196 -163 306 -10 74 -5 316 9
394 l7 40 11 -45 c7 -25 19 -58 27 -75z m908 85 c69 -23 100 -49 100 -84 0
-39 -47 -123 -86 -152 -32 -25 -46 -29 -98 -28 -66 0 -124 24 -163 66 -44 48
-52 151 -16 207 15 23 18 24 107 18 53 -3 118 -14 156 -27z m265 -97 c48 -47
-20 -253 -107 -327 -47 -41 -69 -46 -61 -16 3 11 11 20 18 20 6 0 20 10 31 22
l19 21 -26 -17 -27 -17 29 86 c16 47 29 92 29 100 0 8 5 17 11 21 9 5 10 -9 7
-51 -4 -51 -3 -56 9 -39 9 12 13 39 12 73 -2 46 1 57 21 73 33 27 15 36 -20 9
l-31 -22 7 28 c11 49 49 67 79 36z m-953 -752 c93 -54 246 -65 366 -27 22 7
23 6 12 -16 -43 -83 -129 -128 -244 -128 -106 0 -167 29 -220 101 -33 47 -29
69 14 69 16 0 30 5 30 10 0 14 4 13 42 -9z"/>
<path d="M693 1374 c-16 -7 90 -102 123 -110 27 -7 132 1 142 10 12 12 -24 59
-64 82 -34 20 -54 24 -115 23 -41 0 -79 -3 -86 -5z m79 -44 l5 -30 -29 27
c-34 32 -34 33 -4 33 19 0 25 -6 28 -30z m68 26 c0 -11 -19 -15 -25 -6 -3 5 1
10 9 10 9 0 16 -2 16 -4z m89 -69 c-2 -2 -21 -7 -42 -10 l-38 -6 23 29 c23 27
23 28 42 9 11 -10 18 -20 15 -22z"/>
<path d="M922 1018 c-7 -7 -12 -24 -12 -39 0 -21 6 -28 28 -32 17 -4 33 -16
40 -31 16 -36 57 -44 91 -18 18 13 37 18 54 15 21 -4 29 0 38 20 8 19 8 29 -1
43 -11 18 -11 18 -6 1 10 -30 -10 -55 -39 -50 -14 3 -36 -2 -50 -11 -35 -23
-51 -20 -75 14 -12 17 -30 30 -41 30 -25 0 -36 27 -20 51 13 22 10 24 -7 7z"/>
<path d="M747 853 c-14 -13 -6 -23 39 -42 119 -53 206 -73 342 -78 75 -3 132
-2 132 3 -1 24 -24 29 -145 30 -113 0 -141 4 -211 27 -45 15 -93 36 -107 47
-26 21 -39 24 -50 13z"/>
<path d="M890 670 c-11 -34 -11 -44 1 -66 19 -36 56 -74 71 -74 27 0 80 42 93
74 23 56 12 71 -60 85 -36 6 -70 14 -78 17 -9 3 -18 -9 -27 -36z"/>
<path d="M1280 1269 c-13 -6 -32 -17 -42 -26 -16 -15 -16 -17 5 -33 69 -53
128 -62 205 -31 26 11 54 21 62 24 9 3 -17 20 -60 41 -76 37 -123 44 -170 25z
m85 -19 c3 -5 2 -10 -4 -10 -5 0 -13 5 -16 10 -3 6 -2 10 4 10 5 0 13 -4 16
-10z m-55 -23 c0 -13 6 -29 13 -36 6 -7 -8 -3 -32 9 -42 21 -44 23 -26 36 28
21 45 17 45 -9z m150 -7 c17 -11 14 -14 -26 -28 -30 -10 -31 -9 -20 14 12 26
23 29 46 14z"/>
</g>
</svg>
